<svg width="24" height="20" viewBox="0 0 24 20" fill="none" xmlns="http://www.w3.org/2000/svg">
<path fill-rule="evenodd" clip-rule="evenodd" d="M3.56363 1.72986V18.274C3.56363 19.0622 4.7803 19.0622 4.7803 18.274V1.72986C4.7803 0.941629 3.56363 0.941629 3.56363 1.72986ZM5.95266 10.8669H18.0473V9.46809H5.95266V10.8669ZM18.0473 12.0243H5.95266V18.2743C5.95266 20.5737 2.39152 20.5767 2.39152 18.2743V17.5072C1.23459 17.9312 0 17.0638 0 15.8561V4.14776C0 2.93261 1.24109 2.07481 2.39152 2.49537V1.73005C2.39152 -0.616832 5.95266 -0.536183 5.95266 1.73005V8.31042H18.0473V1.73005C18.0473 -0.536183 21.608 -0.616832 21.608 1.73005V2.49537C22.7584 2.07483 24 2.93263 24 4.14776V15.8561C24 17.0636 22.7646 17.931 21.608 17.5072V18.2743C21.608 20.5767 18.0473 20.5737 18.0473 18.2743V12.0243ZM20.4361 1.73005V18.2741C20.4361 19.0624 19.2194 19.0624 19.2194 18.2741V1.73005C19.2194 0.941818 20.4361 0.941818 20.4361 1.73005ZM22.8276 4.14776V15.8561C22.8276 16.6443 21.611 16.6443 21.611 15.8561V4.14776C21.611 3.35953 22.8276 3.35953 22.8276 4.14776ZM1.17211 4.14776V15.8561C1.17211 16.6443 2.38878 16.6443 2.38878 15.8561V4.14776C2.38878 3.35953 1.17211 3.35953 1.17211 4.14776Z" fill="#1E2F4E"/>
</svg>
