<svg width="18" height="15" viewBox="0 0 18 15" fill="none" xmlns="http://www.w3.org/2000/svg">
<path fill-rule="evenodd" clip-rule="evenodd" d="M2.67272 1.2974V13.7055C2.67272 14.2966 3.58522 14.2966 3.58522 13.7055V1.2974C3.58522 0.706221 2.67272 0.706221 2.67272 1.2974ZM4.46449 8.15021H13.5355V7.10106H4.46449V8.15021ZM13.5355 9.01823H4.46449V13.7057C4.46449 15.4303 1.79364 15.4325 1.79364 13.7057V13.1304C0.925943 13.4484 0 12.7979 0 11.892V3.11082C0 2.19946 0.930821 1.55611 1.79364 1.87153V1.29754C1.79364 -0.462624 4.46449 -0.402137 4.46449 1.29754V6.23281H13.5355V1.29754C13.5355 -0.402137 16.206 -0.462624 16.206 1.29754V1.87153C17.0688 1.55612 18 2.19947 18 3.11082V11.892C18 12.7977 17.0735 13.4482 16.206 13.1304V13.7057C16.206 15.4325 13.5355 15.4303 13.5355 13.7057V9.01823ZM15.3271 1.29754V13.7056C15.3271 14.2968 14.4146 14.2968 14.4146 13.7056V1.29754C14.4146 0.706363 15.3271 0.706363 15.3271 1.29754ZM17.1207 3.11082V11.892C17.1207 12.4832 16.2082 12.4832 16.2082 11.892V3.11082C16.2082 2.51965 17.1207 2.51965 17.1207 3.11082ZM0.879079 3.11082V11.892C0.879079 12.4832 1.79158 12.4832 1.79158 11.892V3.11082C1.79158 2.51965 0.879079 2.51965 0.879079 3.11082Z" fill="#0AC277"/>
</svg>
