<svg width="18" height="4" viewBox="0 0 18 4" fill="none" xmlns="http://www.w3.org/2000/svg">
<mask id="path-1-inside-1_248_1713" fill="white">
<path d="M4.72021 2C4.72021 3.10457 3.82478 4 2.72021 4C1.61565 4 0.720215 3.10457 0.720215 2C0.720215 0.895431 1.61565 0 2.72021 0C3.82478 0 4.72021 0.895431 4.72021 2Z"/>
</mask>
<path d="M4.72021 2C4.72021 3.10457 3.82478 4 2.72021 4C1.61565 4 0.720215 3.10457 0.720215 2C0.720215 0.895431 1.61565 0 2.72021 0C3.82478 0 4.72021 0.895431 4.72021 2Z" fill="#FFFAFA"/>
<path d="M2.72021 2V6C4.92935 6 6.72021 4.20914 6.72021 2H2.72021ZM2.72021 2H-1.27979C-1.27979 4.20914 0.511076 6 2.72021 6V2ZM2.72021 2V-2C0.511076 -2 -1.27979 -0.209139 -1.27979 2H2.72021ZM2.72021 2H6.72021C6.72021 -0.209139 4.92935 -2 2.72021 -2V2Z" fill="#778090" fill-opacity="0.5" mask="url(#path-1-inside-1_248_1713)"/>
<mask id="path-3-inside-2_248_1713" fill="white">
<path d="M10.7202 2C10.7202 3.10457 9.82478 4 8.72021 4C7.61565 4 6.72021 3.10457 6.72021 2C6.72021 0.895431 7.61565 0 8.72021 0C9.82478 0 10.7202 0.895431 10.7202 2Z"/>
</mask>
<path d="M10.7202 2C10.7202 3.10457 9.82478 4 8.72021 4C7.61565 4 6.72021 3.10457 6.72021 2C6.72021 0.895431 7.61565 0 8.72021 0C9.82478 0 10.7202 0.895431 10.7202 2Z" fill="#FFFAFA"/>
<path d="M8.72021 2V6C10.9294 6 12.7202 4.20914 12.7202 2H8.72021ZM8.72021 2H4.72021C4.72021 4.20914 6.51108 6 8.72021 6V2ZM8.72021 2V-2C6.51108 -2 4.72021 -0.209139 4.72021 2H8.72021ZM8.72021 2H12.7202C12.7202 -0.209139 10.9294 -2 8.72021 -2V2Z" fill="#778090" fill-opacity="0.5" mask="url(#path-3-inside-2_248_1713)"/>
<mask id="path-5-inside-3_248_1713" fill="white">
<path d="M16.7202 2C16.7202 3.10457 15.8248 4 14.7202 4C13.6156 4 12.7202 3.10457 12.7202 2C12.7202 0.895431 13.6156 0 14.7202 0C15.8248 0 16.7202 0.895431 16.7202 2Z"/>
</mask>
<path d="M16.7202 2C16.7202 3.10457 15.8248 4 14.7202 4C13.6156 4 12.7202 3.10457 12.7202 2C12.7202 0.895431 13.6156 0 14.7202 0C15.8248 0 16.7202 0.895431 16.7202 2Z" fill="#FFFAFA"/>
<path d="M14.7202 2V6C16.9294 6 18.7202 4.20914 18.7202 2H14.7202ZM14.7202 2H10.7202C10.7202 4.20914 12.5111 6 14.7202 6V2ZM14.7202 2V-2C12.5111 -2 10.7202 -0.209139 10.7202 2H14.7202ZM14.7202 2H18.7202C18.7202 -0.209139 16.9294 -2 14.7202 -2V2Z" fill="#778090" fill-opacity="0.5" mask="url(#path-5-inside-3_248_1713)"/>
</svg>
