<svg width="17" height="20" viewBox="0 0 17 20" fill="none" xmlns="http://www.w3.org/2000/svg">
<path d="M8.31819 9.46451C5.70295 9.46451 3.58594 7.34736 3.58594 4.73225C3.58594 2.11702 5.70309 0 8.31819 0C10.9334 0 13.0504 2.11715 13.0504 4.73225C13.0504 7.34736 10.9335 9.46451 8.31819 9.46451ZM8.31819 1.02117C6.25094 1.02117 4.5822 2.68991 4.5822 4.75716C4.5822 6.82441 6.25094 8.49315 8.31819 8.49315C10.3854 8.49315 12.0542 6.82441 12.0542 4.75716C12.0542 2.68991 10.3854 1.02117 8.31819 1.02117Z" fill="#1E2F4E"/>
<path d="M8.31819 1.02117C6.25094 1.02117 4.5822 2.68991 4.5822 4.75716C4.5822 6.82441 6.25094 8.49315 8.31819 8.49315C10.3854 8.49315 12.0542 6.82441 12.0542 4.75716C12.0542 2.68991 10.3854 1.02117 8.31819 1.02117Z" fill="#1E2F4E"/>
<path d="M16.6374 19.9996H15.6413V18.7543C15.6413 14.9188 12.5031 11.7804 8.66741 11.7804H7.97002C4.13449 11.7804 0.996175 14.9186 0.996175 18.7543V19.9996H0V18.7543C0 14.3708 3.58659 10.7842 7.97011 10.7842H8.6675C13.051 10.7842 16.6376 14.3708 16.6376 18.7543L16.6374 19.9996Z" fill="#1E2F4E"/>
<path d="M15.6413 19.9996V18.7543C15.6413 14.9188 12.5031 11.7804 8.66741 11.7804H7.97002C4.13449 11.7804 0.996175 14.9186 0.996175 18.7543V19.9996H15.6413Z" fill="#1E2F4E"/>
</svg>
