<svg width="17" height="20" viewBox="0 0 17 20" fill="none" xmlns="http://www.w3.org/2000/svg">
<path d="M8.31863 9.46451C5.70339 9.46451 3.58637 7.34736 3.58637 4.73225C3.58637 2.11702 5.70352 0 8.31863 0C10.9339 0 13.0509 2.11715 13.0509 4.73225C13.0509 7.34736 10.9339 9.46451 8.31863 9.46451ZM8.31863 1.02117C6.25138 1.02117 4.58264 2.68991 4.58264 4.75716C4.58264 6.82441 6.25138 8.49315 8.31863 8.49315C10.3859 8.49315 12.0546 6.82441 12.0546 4.75716C12.0546 2.68991 10.3859 1.02117 8.31863 1.02117Z" fill="#1E2F4E"/>
<path d="M16.6374 20H15.6413V18.7547C15.6413 14.9191 12.5031 11.7808 8.66741 11.7808H7.97002C4.13449 11.7808 0.996175 14.919 0.996175 18.7547V20H0V18.7547C0 14.3712 3.58659 10.7846 7.97011 10.7846H8.6675C13.051 10.7846 16.6376 14.3712 16.6376 18.7547L16.6374 20Z" fill="#1E2F4E"/>
</svg>
