<svg width="14" height="16" viewBox="0 0 14 16" fill="none" xmlns="http://www.w3.org/2000/svg">
<path d="M13.3176 14.8392L10.2891 10.6614C12.5328 8.57027 12.9188 5.07797 11.0724 2.5309C9.08087 -0.216535 5.25091 -0.820987 2.51775 1.18091C-0.215356 3.18278 -0.816801 7.03265 1.17486 9.78002C3.02124 12.3272 6.44671 13.0281 9.11435 11.5219L12.1428 15.6997C12.3793 16.0257 12.8338 16.0975 13.1581 15.8598C13.4826 15.6224 13.5539 15.1652 13.3176 14.8392ZM8.87358 9.94865C6.79264 11.4729 3.86593 11.0109 2.3499 8.91918C0.833448 6.82717 1.2929 3.88518 3.37396 2.36127C5.4549 0.83718 8.38162 1.2989 9.89794 3.39087C11.4142 5.48287 10.9546 8.42474 8.87358 9.94865Z" fill="#ABABAB"/>
</svg>
