<svg width="16" height="20" viewBox="0 0 16 20" fill="none" xmlns="http://www.w3.org/2000/svg">
<path d="M0.500186 7.98969C0.500186 8.87767 0.862661 9.97379 1.47555 11.1734C2.08302 12.3624 2.91047 13.6035 3.78231 14.768C5.25204 16.7311 6.82435 18.4453 7.61923 19.2798C8.41412 18.4453 9.98642 16.7311 11.4562 14.768C12.328 13.6035 13.1554 12.3624 13.7629 11.1734C14.3758 9.97379 14.7383 8.87767 14.7383 7.98969C14.7383 3.83597 11.5237 0.5 7.61923 0.5C3.71473 0.5 0.500186 3.83597 0.500186 7.98969ZM7.61923 4.13917C9.67725 4.13917 11.3143 5.89083 11.3143 7.98969C11.3143 10.0885 9.67725 11.8402 7.61923 11.8402C5.56122 11.8402 3.92415 10.0885 3.92415 7.98969C3.92415 5.89083 5.56122 4.13917 7.61923 4.13917Z" stroke="#1E2F4E"/>
</svg>
