<svg width="20" height="20" viewBox="0 0 20 20" fill="none" xmlns="http://www.w3.org/2000/svg">
<path d="M10.0006 8.79678C7.77113 8.79678 5.95764 10.6377 5.95764 12.9005C5.95764 15.1634 7.77167 17.0041 10.0006 17.0041C12.2295 17.0041 14.0435 15.1632 14.0435 12.9005C14.0435 10.6375 12.23 8.79678 10.0006 8.79678ZM10.0006 16.1562C8.23853 16.1562 6.80554 14.696 6.80554 12.9005C6.80554 11.1049 8.23894 9.64468 10.0006 9.64468C11.7622 9.64468 13.1956 11.1049 13.1956 12.9005C13.1956 14.696 11.7626 16.1562 10.0006 16.1562Z" fill="#1E2F4E"/>
<path d="M11.6643 12.4764H10.4249V10.5997C10.4249 10.3658 10.2348 10.1757 10.001 10.1757C9.76709 10.1757 9.57702 10.3658 9.57702 10.5997V12.9004C9.57702 13.1342 9.76709 13.3243 10.001 13.3243H11.6643C11.8982 13.3243 12.0883 13.1342 12.0883 12.9004C12.0883 12.6665 11.8987 12.4764 11.6643 12.4764Z" fill="#1E2F4E"/>
<path d="M16.563 2.09174H15.3865V1.48484C15.3865 0.66636 14.7207 0 13.9017 0H13.8578C13.0394 0 12.373 0.665858 12.373 1.48484V2.09188H7.62737L7.62754 1.48484C7.62754 0.66636 6.96168 0 6.1427 0H6.09888C5.2804 0 4.61404 0.665858 4.61404 1.48484V2.09188H3.4375C1.54225 2.09188 0 3.48643 0 5.20019V16.8917C0 18.606 1.54221 20 3.4375 20H16.5622C18.4575 20 19.9997 18.6054 19.9997 16.8917L19.9996 5.20019C20.0006 3.48643 18.4583 2.09174 16.563 2.09174ZM13.221 1.48484C13.221 1.13376 13.5067 0.847849 13.858 0.847849H13.9018C14.2529 0.847849 14.5388 1.13356 14.5388 1.48484V3.59509C14.5388 3.94618 14.2531 4.23209 13.9018 4.23209H13.858C13.5069 4.23209 13.221 3.94637 13.221 3.59509V1.48484ZM5.46303 1.48484C5.46303 1.13376 5.74874 0.847849 6.10002 0.847849H6.14384C6.49493 0.847849 6.78083 1.13356 6.78083 1.48484V3.59509C6.78083 3.94618 6.49512 4.23209 6.14384 4.23209H6.10002C5.74893 4.23209 5.46303 3.94637 5.46303 3.59509V1.48484ZM3.43809 2.93959H4.61463V3.59491C4.61463 4.4134 5.28049 5.07975 6.09947 5.07975H6.14329C6.96177 5.07975 7.62813 4.4139 7.62813 3.59491V2.93959H12.3738V3.59491C12.3738 4.4134 13.0396 5.07975 13.8586 5.07975H13.9024C14.7209 5.07975 15.3873 4.4139 15.3873 3.59491V2.93959H16.5638C17.9917 2.93959 19.1534 3.95347 19.1534 5.2V6.50281H0.848937V5.2C0.848225 3.95365 2.01007 2.93959 3.43809 2.93959ZM16.5633 19.1524H3.43809C2.01025 19.1524 0.848487 18.1385 0.848487 16.892V7.35143H19.153V16.892C19.153 18.1385 17.9913 19.1524 16.5633 19.1524Z" fill="#1E2F4E"/>
</svg>
