<svg width="20" height="20" viewBox="0 0 20 20" fill="none" xmlns="http://www.w3.org/2000/svg">
<path d="M16.563 2.09174H15.3865V1.48484C15.3865 0.66636 14.7207 0 13.9017 0H13.8578C13.0394 0 12.373 0.665858 12.373 1.48484V2.09188H7.62737L7.62754 1.48484C7.62754 0.66636 6.96168 0 6.1427 0H6.09888C5.2804 0 4.61404 0.665858 4.61404 1.48484V2.09188H3.4375C1.54225 2.09188 0 3.48643 0 5.20019V16.8917C0 18.606 1.54221 20 3.4375 20H16.5622C18.4575 20 19.9997 18.6054 19.9997 16.8917L19.9996 5.20019C20.0006 3.48643 18.4583 2.09174 16.563 2.09174ZM13.221 1.48484C13.221 1.13376 13.5067 0.847849 13.858 0.847849H13.9018C14.2529 0.847849 14.5388 1.13356 14.5388 1.48484V3.59509C14.5388 3.94618 14.2531 4.23209 13.9018 4.23209H13.858C13.5069 4.23209 13.221 3.94637 13.221 3.59509V1.48484ZM5.46303 1.48484C5.46303 1.13376 5.74874 0.847849 6.10002 0.847849H6.14384C6.49493 0.847849 6.78083 1.13356 6.78083 1.48484V3.59509C6.78083 3.94618 6.49512 4.23209 6.14384 4.23209H6.10002C5.74893 4.23209 5.46303 3.94637 5.46303 3.59509V1.48484ZM3.43809 2.93959H4.61463V3.59491C4.61463 4.4134 5.28049 5.07975 6.09947 5.07975H6.14329C6.96177 5.07975 7.62813 4.4139 7.62813 3.59491V2.93959H12.3738V3.59491C12.3738 4.4134 13.0396 5.07975 13.8586 5.07975H13.9024C14.7209 5.07975 15.3873 4.4139 15.3873 3.59491V2.93959H16.5638C17.9917 2.93959 19.1534 3.95347 19.1534 5.2V6.50281H0.848937V5.2C0.848225 3.95365 2.01007 2.93959 3.43809 2.93959ZM16.5633 19.1524H3.43809C2.01025 19.1524 0.848487 18.1385 0.848487 16.892V7.35143H19.153V16.892C19.153 18.1385 17.9913 19.1524 16.5633 19.1524Z" fill="#1E2F4E"/>
<path d="M16.5633 19.1524H3.43809C2.01025 19.1524 0.848487 18.1385 0.848487 16.892V7.35143H19.153V16.892C19.153 18.1385 17.9913 19.1524 16.5633 19.1524Z" fill="#1E2F4E"/>
<path d="M5.46303 1.48484C5.46303 1.13376 5.74874 0.847849 6.10002 0.847849H6.14384C6.49493 0.847849 6.78083 1.13356 6.78083 1.48484V3.59509C6.78083 3.94618 6.49512 4.23209 6.14384 4.23209H6.10002C5.74893 4.23209 5.46303 3.94637 5.46303 3.59509V1.48484Z" fill="#1E2F4E"/>
<path d="M13.221 1.48484C13.221 1.13376 13.5067 0.847849 13.858 0.847849H13.9018C14.2529 0.847849 14.5388 1.13356 14.5388 1.48484V3.59509C14.5388 3.94618 14.2531 4.23209 13.9018 4.23209H13.858C13.5069 4.23209 13.221 3.94637 13.221 3.59509V1.48484Z" fill="#1E2F4E"/>
<path d="M9.99997 8.79688C7.77052 8.79688 5.95703 10.6378 5.95703 12.9006C5.95703 15.1635 7.77106 17.0042 9.99997 17.0042C12.2289 17.0042 14.0429 15.1633 14.0429 12.9006C14.0429 10.6376 12.2294 8.79688 9.99997 8.79688ZM9.99997 16.1563C8.23792 16.1563 6.80493 14.6961 6.80493 12.9006C6.80493 11.105 8.23833 9.64477 9.99997 9.64477C11.7616 9.64477 13.195 11.105 13.195 12.9006C13.195 14.6961 11.762 16.1563 9.99997 16.1563Z" fill="white"/>
<path d="M11.6635 12.4765H10.4241V10.5997C10.4241 10.3658 10.234 10.1758 10.0001 10.1758C9.76623 10.1758 9.57617 10.3658 9.57617 10.5997V12.9004C9.57617 13.1343 9.76623 13.3243 10.0001 13.3243H11.6635C11.8974 13.3243 12.0874 13.1343 12.0874 12.9004C12.0874 12.6665 11.8979 12.4765 11.6635 12.4765L11.6635 12.4765Z" fill="white"/>
</svg>
