<svg width="22" height="18" viewBox="0 0 22 18" fill="none" xmlns="http://www.w3.org/2000/svg">
<path d="M18.9863 0H3.0137C1.35182 0 0 1.35182 0 3.0137V14.7671C0 16.429 1.35182 17.7808 3.0137 17.7808H18.9863C20.6482 17.7808 22 16.429 22 14.7671V3.0137C22 1.35182 20.6482 0 18.9863 0ZM3.0137 16.5753C2.01653 16.5753 1.20548 15.7643 1.20548 14.7671V8.88487L7.21962 4.23413L14.7483 16.5753H3.0137ZM20.7945 14.7671C20.7945 15.7643 19.9835 16.5753 18.9863 16.5753H16.1599L12.754 10.992L17.2065 7.99233L20.7945 13.7835V14.7671ZM20.7945 11.4947L17.9014 6.82518C17.8153 6.68583 17.6757 6.5877 17.5156 6.55323C17.355 6.51875 17.1882 6.5513 17.0522 6.64267L12.1259 9.96184L7.89806 3.0313C7.80885 2.88495 7.66154 2.78369 7.49278 2.75235C7.32473 2.72149 7.15042 2.76368 7.01493 2.86832L1.20548 7.3609V3.0137C1.20548 2.01653 2.01653 1.20548 3.0137 1.20548H18.9863C19.9835 1.20548 20.7945 2.01653 20.7945 3.0137V11.4947ZM13.3408 2.48112C12.4157 2.48112 11.663 3.23382 11.663 4.1589C11.663 5.08399 12.4157 5.83645 13.3408 5.83645C14.2659 5.83645 15.0183 5.08399 15.0183 4.1589C15.0183 3.23382 14.2659 2.48112 13.3408 2.48112ZM13.3408 4.63097C13.0804 4.63097 12.8685 4.41929 12.8685 4.1589C12.8685 3.89852 13.0804 3.6866 13.3408 3.6866C13.6012 3.6866 13.8129 3.89852 13.8129 4.1589C13.8129 4.41929 13.6012 4.63097 13.3408 4.63097Z" fill="#1E2F4E"/>
</svg>
