<svg width="24" height="24" viewBox="0 0 24 24" fill="none" xmlns="http://www.w3.org/2000/svg">
<path d="M19.6295 0H4.37053C1.94526 0 0 1.97053 0 4.37053V19.6295C0 22.0547 1.97053 24 4.37053 24H19.6295C22.0547 24 24 22.0295 24 19.6295V4.37053C24 1.97053 22.0295 0 19.6295 0ZM17.1284 13.2884H13.2884V17.1284C13.2884 17.8358 12.7074 18.4168 12 18.4168C11.6463 18.4168 11.3179 18.2653 11.0905 18.0379C10.8632 17.8105 10.7116 17.4821 10.7116 17.1284V13.2884H6.87158C6.51789 13.2884 6.18947 13.1368 5.96211 12.9095C5.73474 12.6821 5.58316 12.3537 5.58316 12C5.58316 11.2926 6.16421 10.7116 6.87158 10.7116H10.7116V6.87158C10.7116 6.16421 11.2926 5.58316 12 5.58316C12.7074 5.58316 13.2884 6.16421 13.2884 6.87158V10.7116H17.1284C17.8358 10.7116 18.4168 11.2926 18.4168 12C18.4168 12.7074 17.8358 13.2884 17.1284 13.2884Z" fill="#1E2F4E"/>
</svg>
