<svg width="22" height="19" viewBox="0 0 22 19" fill="none" xmlns="http://www.w3.org/2000/svg">
<path d="M18.4202 2.34045H16.2491C15.7365 0.95991 14.3939 0 12.8921 0H9.10742C7.60538 0 6.26298 0.959673 5.75069 2.34045H3.57983C1.60577 2.34045 0 3.94645 0 5.92074V14.7849C0 16.759 1.60577 18.3648 3.57983 18.3648H18.4202C20.3942 18.3648 22 16.759 22 14.7849V5.92098C22 3.94669 20.3942 2.34045 18.4202 2.34045ZM20.8158 14.7849C20.8158 16.1058 19.741 17.1806 18.4202 17.1806H3.57983C2.25897 17.1806 1.1842 16.1058 1.1842 14.7849V11.112H7.08244C7.31715 13.0669 8.98284 14.5879 11 14.5879C13.0172 14.5879 14.6829 13.0669 14.9176 11.112H20.8158V14.7849ZM8.23538 10.6391C8.23538 9.11452 9.47547 7.87443 11 7.87443C12.5245 7.87443 13.7646 9.11452 13.7646 10.6391C13.7646 12.1636 12.5245 13.4037 11 13.4037C9.47547 13.4037 8.23538 12.1636 8.23538 10.6391ZM20.8158 9.92783H14.8813C14.545 8.08924 12.9343 6.69024 11 6.69024C9.06573 6.69024 7.45499 8.08924 7.11868 9.92783H1.1842V5.92098C1.1842 4.59966 2.25897 3.52488 3.57983 3.52488H6.19216C6.46998 3.52488 6.71037 3.33185 6.77029 3.06044C7.01044 1.97334 7.99309 1.18443 9.10718 1.18443H12.8919C14.0057 1.18443 14.9888 1.97358 15.2292 3.06067C15.2894 3.33185 15.5298 3.52488 15.8074 3.52488H18.4197C19.7406 3.52488 20.8153 4.59966 20.8153 5.92098V9.92783H20.8158ZM11 1.9589C10.1673 1.9589 9.49015 2.63602 9.49015 3.46875C9.49015 4.30147 10.1673 4.9786 11 4.9786C11.8327 4.9786 12.5099 4.30147 12.5099 3.46875C12.5099 2.63602 11.8327 1.9589 11 1.9589ZM11 3.7944C10.8205 3.7944 10.6743 3.64827 10.6743 3.46875C10.6743 3.28922 10.8205 3.14309 11 3.14309C11.1795 3.14309 11.3257 3.28922 11.3257 3.46875C11.3257 3.64827 11.1795 3.7944 11 3.7944Z" fill="#1E2F4E"/>
</svg>
