<svg width="22" height="25" viewBox="0 0 22 25" fill="none" xmlns="http://www.w3.org/2000/svg">
<path d="M8.67063 21.2299C8.67572 21.2299 8.6805 21.2299 8.68592 21.2299C9.12567 21.2232 9.47587 20.9144 9.46759 20.5408L9.14893 5.98407C9.14096 5.61462 8.78566 5.31987 8.35261 5.31987C8.34751 5.31987 8.34273 5.31987 8.33731 5.31987C7.89757 5.32663 7.54737 5.63546 7.55565 6.00898L7.87431 20.5657C7.88259 20.9352 8.23757 21.2299 8.67063 21.2299ZM13.331 21.2299C13.764 21.2299 14.1193 20.9352 14.1273 20.5657L14.4459 6.00898C14.4539 5.63546 14.104 5.32663 13.6643 5.31987C13.6589 5.31987 13.6541 5.31987 13.649 5.31987C13.2159 5.31987 12.8606 5.61462 12.8527 5.98407L12.534 20.5408C12.526 20.9144 12.8759 21.2232 13.3157 21.2299C13.3211 21.2299 13.3262 21.2299 13.331 21.2299ZM19.5964 5.32014C19.1589 5.30877 18.7892 5.60109 18.7746 5.9746L18.1369 22.8152C18.1369 23.274 17.6985 23.647 17.1596 23.647H4.84357C4.30377 23.647 3.86434 23.274 3.86402 22.7933L3.22671 5.97433C3.21269 5.60082 2.84687 5.30715 2.4049 5.31987C1.96515 5.33178 1.62005 5.64439 1.63407 6.01791L2.27106 22.8149C2.27106 24.0199 3.42523 25 4.84357 25H17.1593C18.5767 25 19.7299 24.0197 19.7296 22.8366L20.3669 6.01764C20.3809 5.64466 20.0358 5.33232 19.5964 5.32014ZM21.2034 2.61352H16.2005L15.6948 0.53943C15.6183 0.225462 15.2923 0 14.9147 0H7.0885C6.71057 0 6.38491 0.225462 6.30843 0.53943L5.80272 2.61352H0.79664C0.356576 2.61352 0 2.91639 0 3.29017C0 3.66396 0.356576 3.96683 0.79664 3.96683H21.2034C21.6434 3.96683 22 3.66396 22 3.29017C22 2.91639 21.6431 2.61352 21.2034 2.61352ZM7.42978 2.61352L7.73696 1.35358H14.2659L14.5731 2.61352H7.42978Z" fill="#FF2400"/>
</svg>
