<svg width="8" height="6" viewBox="0 0 8 6" fill="none" xmlns="http://www.w3.org/2000/svg">
<path d="M7.11461 0.29416C6.93753 0.104089 6.71102 0.000333263 6.50885 0C6.38909 0 6.27623 0.0373253 6.19125 0.116753L5.24778 0.9969L3.96416 2.19298C3.94161 2.21386 3.92595 2.23686 3.91117 2.25763L2.67977 3.40495L1.22885 1.84805C1.13987 1.75307 1.01356 1.70786 0.87737 1.70786C0.685522 1.70786 0.471678 1.79551 0.294604 1.96036C0.104533 2.13788 0.00044435 2.36394 0 2.56612C0 2.68632 0.0377698 2.79874 0.117642 2.88417L1.44769 4.31098L2.19387 5.11114C2.28152 5.20579 2.40649 5.25 2.54191 5.25C2.60178 5.25 2.66255 5.24134 2.72498 5.22523C2.73631 5.22567 2.74842 5.22612 2.75975 5.22612C2.8795 5.22656 2.99148 5.19101 3.07735 5.11159L5.30432 3.03558C5.32598 3.0147 5.34254 2.99137 5.35731 2.97048L7.22669 1.22774C7.32212 1.13876 7.36733 1.0129 7.36733 0.876703C7.36711 0.685077 7.27946 0.471567 7.11461 0.29416Z" fill="currentColor"/>
</svg>