<svg width="50" height="50" viewBox="0 0 50 50" fill="none" xmlns="http://www.w3.org/2000/svg">
<rect x="0.5" y="0.5" width="49" height="49" rx="24.5" fill="#F6F7FA" stroke="#1E2F4E"/>
<path fill-rule="evenodd" clip-rule="evenodd" d="M16.2121 16.4448V33.6783C16.2121 34.4993 17.4795 34.4993 17.4795 33.6783V16.4448C17.4795 15.6237 16.2121 15.6237 16.2121 16.4448ZM18.7007 25.9626H31.2993V24.5055H18.7007V25.9626ZM31.2993 27.1682H18.7007V33.6786C18.7007 36.0739 14.9912 36.0769 14.9912 33.6786V32.8796C13.786 33.3213 12.5 32.4177 12.5 31.1596V18.9635C12.5 17.6977 13.7928 16.8041 14.9912 17.2422V16.445C14.9912 14.0003 18.7007 14.0844 18.7007 16.445V23.2996H31.2993V16.445C31.2993 14.0844 35.0083 14.0003 35.0083 16.445V17.2422C36.2067 16.8042 37.5 17.6977 37.5 18.9635V31.1596C37.5 32.4175 36.2132 33.321 35.0083 32.8796V33.6786C35.0083 36.0769 31.2993 36.0739 31.2993 33.6786V27.1682ZM33.7876 16.445V33.6784C33.7876 34.4995 32.5203 34.4995 32.5203 33.6784V16.445C32.5203 15.6239 33.7876 15.6239 33.7876 16.445ZM36.2788 18.9635V31.1596C36.2788 31.9807 35.0114 31.9807 35.0114 31.1596V18.9635C35.0114 18.1424 36.2788 18.1424 36.2788 18.9635ZM13.7209 18.9635V31.1596C13.7209 31.9807 14.9883 31.9807 14.9883 31.1596V18.9635C14.9883 18.1424 13.7209 18.1424 13.7209 18.9635Z" fill="#1E2F4E"/>
</svg>
