<svg width="100%" height="100%" viewBox="0 0 20 15" fill="none" xmlns="http://www.w3.org/2000/svg">
  <path fill-rule="evenodd" clip-rule="evenodd" d="M4.87724 8.55079L8.09295 11.7665C8.64979 12.3233 8.6478 13.2281 8.09116 13.785C7.53329 14.3429 6.62808 14.3422 6.07266 13.7868L0.43687 8.15099C0.423516 8.13764 0.410362 8.12409 0.397807 8.11034C0.151273 7.85344 0 7.50528 0 7.12242C0 6.95501 0.0285004 6.79437 0.081318 6.64509C0.14689 6.42805 0.265473 6.22377 0.436874 6.05238L6.07266 0.416586C6.62813 -0.13888 7.53335 -0.139442 8.09116 0.41838C8.6478 0.975224 8.64979 1.88003 8.09295 2.43688L4.83577 5.69406H18.5696C19.3594 5.69406 20 6.33519 20 7.12265C20 7.91149 19.3626 8.55124 18.5696 8.55124L4.87724 8.55079Z" fill="currentColor"/>
</svg>