<svg width="20" height="20" viewBox="0 0 20 20" fill="none" xmlns="http://www.w3.org/2000/svg">
<path d="M10 0C4.48499 0 0 4.48517 0 10C0 15.515 4.48493 20 10 20C15.5151 20 20 15.5151 20 10C20 4.48493 15.5151 0 10 0V0ZM10 19.0033C5.04977 19.0033 0.996678 14.9833 0.996678 10C0.996678 5.01673 5.04983 0.996678 10 0.996678C14.9502 0.996678 19.0033 5.04983 19.0033 10C19.0033 14.9502 14.9502 19.0033 10 19.0033Z" fill="#1E2F4E"/>
<path d="M8.55356 10.025L12.523 6.08426C12.7248 5.88392 12.7248 5.5834 12.523 5.3828C12.3212 5.18246 12.0185 5.18246 11.8165 5.3828L7.47693 9.65764C7.27512 9.85799 7.27512 10.1585 7.47693 10.3591L11.7829 14.6339C11.8838 14.7341 12.0185 14.7674 12.153 14.7674C12.2875 14.7674 12.4222 14.7341 12.5231 14.6339C12.7249 14.4336 12.7249 14.1331 12.5231 13.9325L8.55356 10.025Z" fill="#1E2F4E"/>
</svg>
